<?xml version="1.0" encoding="utf-8"?>

<!-- Uploaded to: SVG Repo, www.svgrepo.com, Generator: SVG Repo Mixer Tools -->
<svg width="800px" height="800px" viewBox="-11.33 0 74.134 74.134" xmlns="http://www.w3.org/2000/svg">
  <g id="Group_43" data-name="Group 43" transform="translate(-91.701 -736.446)">
    <path id="Path_23" data-name="Path 23" d="M117.439,810.58a1.5,1.5,0,0,1-1.215-.621c-1-1.384-24.523-34.061-24.523-47.775a25.738,25.738,0,1,1,51.476,0c0,13.714-23.521,46.391-24.523,47.775A1.5,1.5,0,0,1,117.439,810.58Zm0-71.134A22.764,22.764,0,0,0,94.7,762.184c0,11.065,17.861,37.334,22.738,44.3,4.877-6.966,22.738-33.235,22.738-44.3A22.763,22.763,0,0,0,117.439,739.446Zm.182,31.755a7.616,7.616,0,1,1,7.615-7.615A7.624,7.624,0,0,1,117.621,771.2Zm0-12.231a4.616,4.616,0,1,0,4.615,4.616A4.621,4.621,0,0,0,117.621,758.97Z" fill="#000000"/>
  </g>
</svg>